<svg width="237" height="167" viewBox="0 0 237 167" fill="none" xmlns="http://www.w3.org/2000/svg">
<path d="M236.29 167V127.627C236.29 117.318 231.658 107.431 223.411 100.141C215.164 92.8515 203.98 88.7562 192.317 88.7562C180.656 88.7581 169.473 92.8541 161.228 100.144C152.983 107.433 148.351 117.319 148.351 127.627V166.998L236.29 167Z" fill="#2D1A10"/>
<path d="M193.807 108.694C191.712 108.695 189.637 108.33 187.701 107.621C185.764 106.912 184.005 105.874 182.523 104.564C181.041 103.254 179.866 101.699 179.064 99.9878C178.262 98.2764 177.849 96.4422 177.849 94.5898V70.3196H209.766V94.5898C209.765 98.3307 208.083 101.918 205.091 104.563C202.098 107.208 198.039 108.694 193.807 108.694Z" fill="#F37854"/>
<path d="M179.442 55.8562C179.493 57.6621 178.936 59.4408 177.844 60.9675C176.751 62.4941 175.171 63.7 173.303 64.4328C171.435 65.1656 169.364 65.3924 167.35 65.0844C165.336 64.7764 163.471 63.9475 161.99 62.7025C160.509 61.4576 159.479 59.8524 159.03 58.09C158.581 56.3276 158.734 54.4871 159.468 52.8013C160.203 51.1155 161.486 49.6601 163.157 48.619C164.827 47.5779 166.808 46.998 168.851 46.9525C170.208 46.9223 171.558 47.1286 172.825 47.5598C174.092 47.9909 175.25 48.6384 176.233 49.4652C177.217 50.292 178.006 51.282 178.557 52.3785C179.107 53.4751 179.408 54.6568 179.442 55.8562Z" fill="#F89B74"/>
<path d="M209.246 55.3636C209.238 57.1703 209.837 58.9382 210.967 60.444C212.096 61.9498 213.705 63.1257 215.591 63.823C217.476 64.5203 219.553 64.7077 221.559 64.3615C223.565 64.0153 225.41 63.151 226.861 61.878C228.311 60.605 229.301 58.9805 229.707 57.2097C230.113 55.439 229.915 53.6018 229.14 51.9302C228.364 50.2587 227.045 48.828 225.35 47.8191C223.654 46.8102 221.659 46.2685 219.615 46.2623C218.258 46.2579 216.913 46.4899 215.658 46.945C214.402 47.4 213.261 48.0693 212.298 48.9144C211.335 49.7596 210.57 50.7641 210.046 51.8707C209.522 52.9772 209.25 54.1642 209.246 55.3636Z" fill="#F89B74"/>
<path d="M176.396 14.8861C176.396 14.8861 167.726 11.8523 160.677 21.6089C150.203 36.1104 169.738 59.1567 169.738 59.1567L176.396 14.8861Z" fill="#1A1818"/>
<path d="M181.087 4.02162C181.087 4.02162 173.215 -0.399022 164.221 8.00888C150.848 20.5115 165.135 46.3923 165.135 46.3923L181.087 4.02162Z" fill="#1A1818"/>
<path d="M211.525 14.8861C211.525 14.8861 220.197 11.8523 227.243 21.6089C237.72 36.1104 218.185 59.1567 218.185 59.1567L211.525 14.8861Z" fill="#1A1818"/>
<path d="M209.54 6.10217C209.54 6.10217 218.21 3.06837 225.259 12.825C235.734 27.3265 216.198 50.3728 216.198 50.3728L209.54 6.10217Z" fill="#1A1818"/>
<path d="M200.064 10.0458C200.064 10.0458 207.699 5.31314 217.126 13.3553C231.127 25.3066 218.187 51.7352 218.187 51.7352L200.064 10.0458Z" fill="#190C0C"/>
<path d="M193.588 68.4438C211.619 68.4438 226.236 55.5232 226.236 39.5848C226.236 23.6463 211.619 10.7257 193.588 10.7257C175.557 10.7257 160.94 23.6463 160.94 39.5848C160.94 55.5232 175.557 68.4438 193.588 68.4438Z" fill="#1A1818"/>
<path d="M222.062 40.585C222.062 49.1882 220.958 57.7635 218.771 66.1468C217.151 72.3391 212.57 76.6714 206.092 80.1628L204.916 80.7991C201.498 82.614 197.596 83.5935 193.61 83.6374C189.623 83.6812 185.695 82.7879 182.227 81.0487C175.194 77.4775 170.264 72.7621 168.742 66.1208C167.051 58.6432 166.056 51.056 165.765 43.435C165.765 43.435 161.785 13.1926 192.219 13.1874C225.173 13.1822 222.062 40.585 222.062 40.585Z" fill="#F89B74"/>
<path d="M191.656 50.9896L191.354 58.4441L194.884 58.4545" stroke="#180C0D" stroke-width="0.49" stroke-linecap="round" stroke-linejoin="round"/>
<path d="M200.715 36.9422C200.715 36.9422 200.677 38.7035 205.263 38.0621C208.595 37.6699 211.95 37.4476 215.312 37.3964C215.807 37.4207 216.302 37.3423 216.758 37.1675C217.213 36.9926 217.616 36.7261 217.934 36.3892C218.191 35.9471 217.887 35.5137 217.134 35.2918C213.543 34.4659 209.809 34.2413 206.125 34.6296C200.679 35.3577 200.715 36.9422 200.715 36.9422Z" fill="#1A1818"/>
<path d="M187.302 36.5902C187.302 36.5902 187.785 38.3498 182.646 37.9389C178.958 37.7146 175.26 37.6608 171.566 37.7777C171.01 37.8214 170.449 37.7674 169.917 37.6186C169.385 37.4698 168.891 37.2293 168.465 36.9109C168.073 36.4809 168.294 36.032 169.053 35.7719C172.87 34.7507 176.862 34.3397 180.842 34.5584C186.949 35.0005 187.302 36.5902 187.302 36.5902Z" fill="#1A1818"/>
<path d="M189.095 67.2973C189.095 67.2973 195.064 69.3932 198.934 65.803" stroke="#AE0721" stroke-width="0.49" stroke-linecap="round" stroke-linejoin="round"/>
<path d="M224.584 26.4717C217.133 22.0543 208.574 19.3127 199.651 18.4852C190.728 17.6576 181.712 18.7693 173.386 21.7234C173.386 21.7234 159.53 6.65336 181.015 1.10241C202.499 -4.44854 222.619 12.0414 224.584 26.4717Z" fill="#1A1818"/>
<path d="M210.107 42.5857C210.042 42.999 209.844 43.387 209.536 43.7033C209.228 44.0196 208.823 44.2507 208.37 44.3689C207.918 44.4871 207.436 44.4875 206.983 44.37C206.53 44.2524 206.125 44.022 205.816 43.7062C205.508 43.3904 205.309 43.0026 205.243 42.5894C205.177 42.1762 205.248 41.755 205.446 41.3763C205.644 40.9975 205.962 40.6773 206.36 40.454C206.759 40.2306 207.222 40.1136 207.694 40.117C208.383 40.1654 209.023 40.4516 209.474 40.9137C209.926 41.3757 210.153 41.9764 210.107 42.5857Z" fill="#1A1818"/>
<path d="M202.762 41.2751C203.119 40.8633 203.54 40.4985 204.013 40.1916C205.089 39.4901 206.378 39.0914 207.714 39.0475C208.46 39.0238 209.203 39.139 209.895 39.3855C210.213 39.4908 210.515 39.6299 210.795 39.7998C211.052 39.9324 211.287 40.0945 211.495 40.2818C211.813 40.5378 212.093 40.8291 212.327 41.1486C212.501 41.3722 212.59 41.4953 212.59 41.5039C212.651 41.5993 212.668 41.7122 212.636 41.8183C212.604 41.9244 212.526 42.0151 212.419 42.0708C212.349 42.1061 212.27 42.1246 212.189 42.1246C212.109 42.1246 212.03 42.1061 211.96 42.0708L211.89 42.0379C211.89 42.0379 211.75 41.9703 211.525 41.8472C211.413 41.7848 211.284 41.7085 211.133 41.6201C210.961 41.5341 210.785 41.456 210.605 41.3861C210.413 41.2884 210.209 41.2104 209.997 41.1538C209.776 41.0733 209.546 41.0151 209.31 40.9804C209.071 40.9199 208.824 40.8872 208.575 40.8833C208.318 40.8624 208.06 40.8624 207.803 40.8833C207.276 40.9196 206.754 41.0015 206.245 41.1278C205.737 41.237 205.265 41.3999 204.847 41.5248C204.007 41.8039 203.453 42.0136 203.453 42.0136H203.437C203.326 42.0555 203.202 42.0642 203.084 42.0384C202.967 42.0126 202.862 41.9538 202.786 41.8708C202.71 41.7878 202.666 41.6851 202.662 41.5782C202.658 41.4714 202.693 41.3662 202.762 41.2786V41.2751Z" fill="#1A1818"/>
<path d="M176.104 42.5856C176.169 42.9988 176.367 43.3867 176.674 43.703C176.982 44.0192 177.386 44.2503 177.839 44.3687C178.291 44.487 178.773 44.4876 179.226 44.3704C179.679 44.2531 180.084 44.023 180.393 43.7075C180.702 43.392 180.901 43.0046 180.967 42.5916C181.033 42.1786 180.963 41.7574 180.765 41.3786C180.568 40.9998 180.251 40.6794 179.853 40.4556C179.454 40.2319 178.992 40.1143 178.52 40.117C177.831 40.1653 177.191 40.4515 176.739 40.9134C176.287 41.3754 176.059 41.9761 176.104 42.5856Z" fill="#1A1818"/>
<path d="M183.456 41.275C183.1 40.8635 182.679 40.4987 182.207 40.1915C181.131 39.4909 179.841 39.0923 178.506 39.0473C177.76 39.0237 177.016 39.1389 176.324 39.3854C176.007 39.4909 175.706 39.63 175.427 39.7997C175.17 39.9315 174.935 40.0936 174.727 40.2816C174.409 40.5383 174.128 40.8295 173.892 41.1484C173.721 41.3721 173.633 41.4951 173.633 41.5038C173.58 41.582 173.558 41.6733 173.57 41.7635C173.583 41.8537 173.628 41.9379 173.7 42.0031C173.771 42.0684 173.865 42.111 173.967 42.1244C174.069 42.1379 174.172 42.1215 174.262 42.0776L174.331 42.0447C174.331 42.0447 174.47 41.9771 174.696 41.854L175.088 41.6269C175.231 41.5298 175.439 41.4882 175.617 41.3929C175.81 41.2958 176.015 41.2178 176.227 41.1606C176.448 41.0796 176.678 41.0214 176.914 40.9872C177.154 40.9265 177.402 40.8938 177.651 40.8901C177.908 40.8693 178.167 40.8693 178.424 40.8901C178.95 40.9269 179.472 41.0087 179.981 41.1346C180.487 41.2438 180.962 41.4067 181.375 41.5316C182.215 41.8107 182.77 42.0204 182.77 42.0204H182.784C182.895 42.063 183.019 42.0722 183.137 42.0467C183.255 42.0212 183.36 41.9624 183.437 41.8792C183.513 41.796 183.557 41.693 183.561 41.5858C183.565 41.4786 183.53 41.3731 183.46 41.2854L183.456 41.275Z" fill="#1A1818"/>
<path d="M50.2922 2.52574C50.2922 2.52574 25.8955 1.11632 12.279 43.402C-1.33946 84.2765 -3.04213 104.01 7.73848 118.106C18.5191 132.202 29.8668 137.134 49.7257 125.858C49.7257 125.858 70.1513 144.182 93.9816 127.972C117.812 111.761 116.11 68.0675 104.768 48.3341C93.4266 28.6006 80.3629 0.410761 50.2922 2.52574Z" fill="#1A1818"/>
<path d="M99.6533 167V127.627C99.6533 117.318 95.0207 107.431 86.7745 100.142C78.5283 92.8523 67.3436 88.7568 55.6814 88.7563C44.0189 88.7563 32.8341 92.8516 24.5874 100.141C16.3408 107.431 11.7081 117.318 11.7081 127.627V166.998L99.6533 167Z" fill="#EC411B"/>
<path d="M57.17 108.694C55.0745 108.695 52.9995 108.33 51.0634 107.621C49.1272 106.913 47.3679 105.874 45.8861 104.564C44.4042 103.254 43.2287 101.699 42.4267 99.9879C41.6247 98.2765 41.212 96.4423 41.212 94.5899V70.3197H73.1281V94.5899C73.1281 96.4423 72.7153 98.2765 71.9134 99.9879C71.1114 101.699 69.9359 103.254 68.454 104.564C66.9721 105.874 65.2128 106.913 63.2767 107.621C61.3406 108.33 59.2656 108.695 57.17 108.694Z" fill="#F37854"/>
<path d="M39.3566 14.1045C39.3566 14.1045 45.3244 31.111 74.0694 39.8882C102.814 48.6653 106.625 59.0894 106.625 59.0894C106.428 44.418 100.914 30.1891 90.8927 18.4922C74.0736 -1.25681 53.4574 0.390096 53.4574 0.390096L39.3566 14.1045Z" fill="#1A1818"/>
<path d="M57.3523 80.6272C80.0493 80.6272 98.4488 64.7673 98.4488 45.2031C98.4488 25.6389 80.0493 9.77893 57.3523 9.77893C34.6553 9.77893 16.2557 25.6389 16.2557 45.2031C16.2557 64.7673 34.6553 80.6272 57.3523 80.6272Z" fill="#1A1818"/>
<path d="M84.4852 56.8965C85.7541 55.4958 89.6254 52.0841 91.0669 53.1139C92.5197 54.8204 93.3835 56.8619 93.5538 58.9925C92.4424 62.1202 90.844 65.0959 88.804 67.8338C86.8978 69.2007 84.5056 69.9272 82.0515 69.8846L84.4852 56.8965Z" fill="#E99A82"/>
<path d="M88.749 67.9012C88.9451 61.8787 88.5686 55.5199 88.4411 53.6389C86.9644 54.5676 85.634 55.666 84.4852 56.905L82.0515 69.9069C84.4789 69.9416 86.8453 69.233 88.749 67.9012Z" fill="#E1735D"/>
<path d="M30.3115 56.8967C29.0406 55.4959 25.1713 52.0842 23.7279 53.114C22.2769 54.8213 21.4139 56.8625 21.2429 58.9926C22.3543 62.1203 23.9532 65.096 25.9931 67.8339C27.8983 69.2012 30.2897 69.9278 32.7433 69.8847L30.3115 56.8967Z" fill="#E99A82"/>
<path d="M26.0481 67.9012C25.8402 61.8787 26.2266 55.5199 26.3541 53.6389C27.8318 54.5672 29.1624 55.6656 30.3114 56.905L32.7432 69.9069C30.3163 69.9422 27.9507 69.2335 26.0481 67.9012Z" fill="#E1735D"/>
<path d="M57.3974 19.4509C31.3274 19.4509 26.6777 41.3271 26.8875 49.8719C27.0973 58.4168 30.9471 72.0618 36.7777 79.8214C42.6083 87.5809 53.5436 92.4506 57.3974 92.2738C61.2472 92.4471 72.1826 87.574 78.0151 79.8214C83.8477 72.0688 87.7017 58.4168 87.9096 49.8719C88.1175 41.3271 83.4654 19.4509 57.3974 19.4509Z" fill="#E99A82"/>
<path d="M75.5916 59.5852C75.5222 60.0276 75.3098 60.443 74.9802 60.7815C74.6506 61.12 74.2175 61.3674 73.7329 61.4939C73.2483 61.6205 72.733 61.6209 72.2482 61.495C71.7633 61.3692 71.3297 61.1224 70.9994 60.7844C70.6692 60.4463 70.4563 60.0312 70.3861 59.5889C70.3159 59.1466 70.3912 58.6957 70.6035 58.2904C70.8157 57.885 71.1557 57.5424 71.5826 57.3035C72.0095 57.0645 72.5051 56.9394 73.0104 56.9432C73.7474 56.9947 74.4319 57.3009 74.9151 57.7955C75.3983 58.2901 75.6414 58.9332 75.5916 59.5852Z" fill="#1A1818"/>
<path d="M67.7272 58.1826C68.1078 57.7414 68.558 57.3508 69.0645 57.0229C70.2153 56.2729 71.5953 55.847 73.0242 55.8007C73.8215 55.775 74.6159 55.8978 75.3559 56.1613C75.696 56.2744 76.0192 56.4234 76.3188 56.6051C76.5924 56.749 76.8438 56.9238 77.0662 57.1252C77.408 57.3976 77.7077 57.7088 77.9568 58.0509C78.1431 58.2901 78.2369 58.4306 78.2369 58.4306C78.292 58.5142 78.3148 58.6114 78.3015 58.7075C78.2883 58.8036 78.2398 58.8932 78.1636 58.9627C78.0875 59.0322 77.9879 59.0778 77.8797 59.0925C77.7715 59.1072 77.6605 59.0903 77.5642 59.0443L77.49 59.0096C77.49 59.0096 77.3391 58.9385 77.0978 58.805C76.9802 58.7391 76.8406 58.6559 76.6798 58.5623C76.4966 58.4704 76.3079 58.3871 76.1148 58.3127C75.9096 58.2077 75.6915 58.1245 75.4641 58.0648C75.2281 57.976 74.9814 57.9114 74.7287 57.8723C74.4735 57.8076 74.2094 57.7732 73.9439 57.7701C73.6691 57.7432 73.3922 57.7397 73.1166 57.7596C72.5532 57.7986 71.9953 57.8863 71.4513 58.0214C70.908 58.1393 70.4041 58.3127 69.9569 58.4462C69.0587 58.7443 68.4645 58.9662 68.4645 58.9662H68.4487C68.3292 59.0176 68.1935 59.0317 68.0638 59.0063C67.934 58.9808 67.818 58.9173 67.7343 58.826C67.6507 58.7348 67.6045 58.6212 67.6031 58.5037C67.6018 58.3863 67.6456 58.2719 67.7272 58.1792V58.1826Z" fill="#1A1818"/>
<path d="M63.8477 51.4319C64.0277 51.3248 64.2196 51.2341 64.4204 51.1614C64.954 50.9436 65.5013 50.7531 66.0598 50.5911C66.8498 50.3702 67.6557 50.1964 68.472 50.071C69.4104 49.9179 70.3601 49.8258 71.3137 49.7954C72.2663 49.7355 73.2225 49.7355 74.1751 49.7954C75.0036 49.8216 75.8292 49.8975 76.6462 50.0224C78.0759 50.2513 79 50.4662 79 50.4662C79.0792 50.4758 79.1548 50.5006 79.2221 50.5389C79.2894 50.5771 79.3469 50.6279 79.3897 50.6877C79.4325 50.7475 79.4599 50.8148 79.4701 50.8849C79.4804 50.9551 79.4733 51.0264 79.4491 51.0938C79.398 51.1865 79.3208 51.2661 79.225 51.325C79.1292 51.3839 79.0179 51.4201 78.9018 51.4301L78.8448 51.4388C78.8448 51.4388 77.8997 51.5567 76.5289 51.6416C75.8444 51.6642 75.048 51.7352 74.2086 51.7976C73.3613 51.8289 72.4693 51.8947 71.5828 51.971C70.6964 52.0473 69.8176 52.1114 68.9743 52.1704C68.131 52.2293 67.3719 52.3108 66.6894 52.3437C66.0305 52.4131 65.4363 52.4096 65.0716 52.4512L64.4362 52.4894C64.2365 52.5176 64.032 52.4775 63.8645 52.3774C63.6969 52.2773 63.5789 52.1245 63.5341 51.9502C63.5259 51.8565 63.5459 51.7626 63.5921 51.6779C63.6382 51.5933 63.7085 51.5209 63.7965 51.4683L63.8477 51.4319Z" fill="#1A1818"/>
<path d="M39.2095 59.5852C39.2789 60.0274 39.491 60.4427 39.8204 60.7812C40.1499 61.1196 40.5824 61.367 41.0668 61.4937C41.5511 61.6204 42.0668 61.6209 42.5515 61.4954C43.0363 61.3698 43.4698 61.1234 43.8003 60.7857C44.1307 60.4479 44.3439 60.0332 44.4146 59.5911C44.4852 59.1489 44.4103 58.6982 44.1986 58.2928C43.987 57.8873 43.6478 57.5444 43.2214 57.3051C42.795 57.0657 42.2992 56.9401 41.7941 56.9432C41.0568 56.9946 40.3722 57.3008 39.8884 57.7953C39.4046 58.2898 39.1608 58.9328 39.2095 59.5852Z" fill="#1A1818"/>
<path d="M47.0659 58.1824C46.6865 57.7419 46.2375 57.3519 45.7325 57.0244C44.5816 56.2741 43.2017 55.8476 41.7728 55.8005C40.9742 55.7743 40.1784 55.8971 39.4372 56.161C39.0988 56.2742 38.7768 56.4226 38.4781 56.6031C38.203 56.7457 37.9508 56.9207 37.7288 57.1232C37.3875 57.3965 37.0879 57.7077 36.8368 58.0489C36.6524 58.2881 36.5581 58.4268 36.5581 58.4286C36.4918 58.5305 36.4737 58.6515 36.5078 58.7652C36.542 58.8788 36.6257 58.9759 36.7405 59.0353C36.8151 59.0732 36.8997 59.0931 36.9857 59.0931C37.0717 59.0931 37.1562 59.0732 37.2308 59.0353L37.3074 59.0006C37.3074 59.0006 37.4544 58.9278 37.6996 58.7961L38.1152 58.5534C38.2701 58.4494 38.4919 58.406 38.6802 58.3038C38.8876 58.1998 39.1072 58.1161 39.3352 58.0541C39.5707 57.9662 39.8168 57.9022 40.0687 57.8634C40.3241 57.7995 40.5876 57.7651 40.853 57.7611C41.1272 57.7342 41.404 57.7308 41.6789 57.7507C42.2429 57.7897 42.801 57.8773 43.3456 58.0125C43.8869 58.1287 44.391 58.3038 44.8361 58.4372C45.7344 58.7354 46.3286 58.9573 46.3286 58.9573H46.3444C46.4636 59.008 46.5988 59.0217 46.7279 58.9961C46.857 58.9706 46.9725 58.9073 47.0559 58.8165C47.1393 58.7257 47.1857 58.6127 47.1876 58.4958C47.1894 58.3789 47.1465 58.2648 47.0659 58.172V58.1824Z" fill="#1A1818"/>
<path d="M48.1348 51.6488C47.97 51.5592 47.7949 51.4849 47.6129 51.4269C47.1256 51.2477 46.6281 51.0908 46.1224 50.9571C45.4004 50.7774 44.6672 50.6362 43.9261 50.5341C43.0679 50.408 42.2011 50.3321 41.3315 50.307C40.4636 50.2575 39.5928 50.2575 38.7249 50.307C37.9708 50.3282 37.2189 50.3907 36.4736 50.4942C35.1713 50.6814 34.3319 50.86 34.3319 50.86C33.9945 50.9276 33.8122 51.1616 33.922 51.3801C33.9728 51.459 34.0448 51.5256 34.1317 51.574C34.2186 51.6224 34.3175 51.651 34.42 51.6574H34.4769C34.4769 51.6574 35.3359 51.7545 36.5813 51.8308C37.2049 51.8481 37.9308 51.9071 38.6957 51.9591C39.4605 52.0111 40.2821 52.0388 41.094 52.103C41.9059 52.1671 42.7041 52.2191 43.4651 52.2659C44.226 52.3127 44.9262 52.3821 45.5478 52.4046C46.1362 52.4601 46.6892 52.4583 47.0206 52.4913L47.6091 52.5225C47.7836 52.5506 47.9637 52.5211 48.1152 52.4396C48.2667 52.3581 48.3788 52.2303 48.4307 52.0804C48.437 52.0015 48.4187 51.9225 48.3771 51.8524C48.3355 51.7823 48.2727 51.7238 48.1956 51.6834L48.1348 51.6488Z" fill="#1A1818"/>
<path d="M52.4928 79.953C52.4928 79.953 52.6576 79.9634 52.94 80.0067C53.3178 80.0747 53.6995 80.125 54.0834 80.1575C54.5285 80.2026 55.0325 80.2615 55.617 80.2893C56.1818 80.3482 56.7936 80.3326 57.3976 80.369C58.0036 80.3396 58.6178 80.369 59.1845 80.317C59.4669 80.2875 59.7549 80.3083 60.0138 80.2771L60.7493 80.1939C61.218 80.161 61.5928 80.0812 61.8654 80.0431C62.138 80.005 62.3006 79.9928 62.3006 79.9928H62.3399C62.3775 79.9895 62.4157 79.9928 62.4519 80.0025C62.4881 80.0122 62.5218 80.0281 62.551 80.0494C62.5802 80.0707 62.6042 80.0969 62.6219 80.1265C62.6395 80.156 62.65 80.1884 62.6535 80.2217C62.6591 80.2674 62.6507 80.3136 62.6286 80.3552C62.6064 80.3968 62.5715 80.4322 62.528 80.4574C62.528 80.4574 62.3908 80.5424 62.1359 80.6741C61.7878 80.8645 61.4199 81.0253 61.0375 81.1543C60.4987 81.3415 59.9423 81.4859 59.3746 81.586C58.7228 81.6974 58.0614 81.7594 57.3976 81.7715C56.7339 81.7721 56.0714 81.7187 55.4187 81.612C54.8362 81.5295 54.2665 81.3881 53.7204 81.1907C53.3453 81.0654 52.9865 80.905 52.6498 80.7123C52.4027 80.584 52.2577 80.499 52.2577 80.499C52.1846 80.4524 52.135 80.3822 52.1203 80.3036C52.1056 80.225 52.1269 80.1444 52.1792 80.0795C52.2144 80.0361 52.262 80.0016 52.3171 79.9794C52.3721 79.9572 52.4325 79.948 52.4928 79.953Z" fill="#E50019"/>
<path d="M77.2151 58.1724C77.8112 58.4565 78.4923 58.571 79.1648 58.5C79.7192 58.4094 80.242 58.2067 80.6931 57.9078C81.1442 57.6089 81.5113 57.2218 81.7652 56.7769" fill="#1A1818"/>
<path d="M75.5225 57.1722C76.0091 57.4035 76.5645 57.4967 77.1131 57.4392C77.5657 57.3658 77.9931 57.2007 78.3613 56.9567C78.7296 56.7128 79.0286 56.3966 79.2352 56.0332" fill="#1A1818"/>
<path d="M36.9563 58.2956C36.3603 58.5798 35.6791 58.6942 35.0066 58.6232C34.4523 58.5331 33.9292 58.3306 33.4783 58.0316C33.0274 57.7326 32.6611 57.3453 32.4082 56.9" fill="#1A1818"/>
<path d="M38.6408 57.2953C38.1546 57.5277 37.599 57.6215 37.0502 57.564C36.5974 57.4904 36.1701 57.325 35.8019 57.0807C35.4338 56.8364 35.1346 56.5201 34.9281 56.1564" fill="#1A1818"/>
<path d="M16.2988 45.548C16.2988 45.548 55.9872 52.1357 57.4836 20.4873C57.4758 20.4907 37.4384 0.362057 16.2988 45.548Z" fill="#1A1818"/>
<path d="M96.4056 45.548C96.4056 45.548 56.7172 52.1357 55.2208 20.4873C55.2286 20.4907 75.266 0.362057 96.4056 45.548Z" fill="#1A1818"/>
<path d="M57.9466 50.6538C57.9466 49.7567 57.1239 49.0294 56.109 49.0294C55.0941 49.0294 54.2713 49.7567 54.2713 50.6538C54.2713 51.5509 55.0941 52.2782 56.109 52.2782C57.1239 52.2782 57.9466 51.5509 57.9466 50.6538Z" fill="#1A1818"/>
<path d="M58.0544 62.6345L57.7527 70.0889L61.2825 70.0994" stroke="#180C0D" stroke-width="0.49" stroke-linecap="round" stroke-linejoin="round"/>
<path d="M53.1184 80.5824C53.1184 80.5824 58.7449 83.3215 63.0909 80.1854" stroke="#AE0721" stroke-width="0.49" stroke-linecap="round" stroke-linejoin="round"/>
</svg>
