<svg width="200" height="215" viewBox="0 0 200 215" fill="none" xmlns="http://www.w3.org/2000/svg">
<g clip-path="url(#clip0_1740_3378)">
<path d="M149.954 20.256H56.5911V210.621H149.954V20.256Z" fill="#C6E1E5"/>
<path d="M119.133 20.256H58.109V210.621H119.133V20.256Z" fill="#EEDCC5"/>
<path d="M16.002 0V211.583H56.5909V18.183L16.002 0Z" fill="#C54A5E"/>
<path d="M16.001 0H11.995V211.583H16.001V0Z" fill="#AE0721"/>
<path d="M56.5911 18.452V211.583H149.953V18.452H56.5911ZM146.17 207.012H60.3701V23.012H146.17V207.012Z" fill="#AE0721"/>
<path d="M24.1521 102.547H23.1571C22.5911 102.591 22.0652 102.856 21.6929 103.285C21.3206 103.714 21.1317 104.271 21.167 104.838V119.449C21.1317 120.016 21.3206 120.574 21.6929 121.002C22.0651 121.431 22.591 121.696 23.1571 121.741H24.1521C24.7182 121.696 25.244 121.431 25.6163 121.002C25.9886 120.574 26.1774 120.016 26.1421 119.449V104.838C26.1774 104.271 25.9886 103.714 25.6163 103.285C25.244 102.856 24.7181 102.591 24.1521 102.547Z" fill="#AE0721"/>
<path d="M199.501 212.977H0.237C0.0986159 212.647 0.0184319 212.295 0 211.938V211.265C0 210.902 0.107 210.606 0.237 210.606H199.501C199.631 210.606 199.737 210.906 199.737 211.265V211.938C199.719 212.295 199.639 212.647 199.501 212.977Z" fill="#1A1818"/>
<path d="M36.5731 60.644C37.6031 57.712 38.5891 54.905 39.5731 52.099C39.6282 51.991 39.6644 51.8743 39.6801 51.754C39.6596 51.5425 39.6263 51.3325 39.5801 51.125C39.4261 51.276 39.1961 51.4 39.1301 51.583C38.5611 53.153 38.0301 54.737 37.4691 56.308C37.2071 57.039 36.6121 57.289 36.1481 56.843C36.0304 56.7222 35.9415 56.5764 35.8882 56.4163C35.8348 56.2563 35.8184 56.0863 35.8401 55.919C36.5711 53.714 37.3481 51.524 38.1481 49.342C38.2702 48.9541 38.5197 48.6187 38.8562 48.3902C39.1927 48.1617 39.5964 48.0535 40.0021 48.083C41.1211 48.094 42.2411 48.091 43.3601 48.083C43.8516 48.0554 44.3378 48.1951 44.7397 48.4793C45.1416 48.7635 45.4353 49.1755 45.5731 49.648C46.3101 51.672 46.9931 53.715 47.7251 55.741C47.7875 55.8534 47.8233 55.9786 47.8296 56.107C47.8359 56.2354 47.8126 56.3635 47.7614 56.4815C47.7103 56.5994 47.6327 56.704 47.5347 56.7872C47.4366 56.8703 47.3208 56.9298 47.1961 56.961C46.5841 57.201 46.2741 56.793 46.0961 56.312C45.5781 54.878 45.1131 53.425 44.5891 51.993C44.4275 51.6736 44.2284 51.3745 43.9961 51.102C43.965 51.4716 43.9845 51.8437 44.0541 52.208C44.9541 54.843 45.8871 57.465 46.8101 60.091C46.8571 60.224 46.8991 60.358 46.9811 60.606H44.0361V64.04C44.0361 65.086 44.0361 66.132 44.0361 67.178C44.0361 67.978 43.7671 68.321 43.1561 68.338C42.5031 68.355 42.1801 68.013 42.1711 67.179C42.1511 65.279 42.1631 63.384 42.1631 61.486C42.1631 61.225 42.1631 60.964 42.1631 60.663H41.4431C41.42 60.7642 41.4037 60.8667 41.3941 60.97C41.3941 63.038 41.3941 65.106 41.3891 67.17C41.3891 67.957 41.1111 68.312 40.5021 68.334C39.8521 68.357 39.5021 67.982 39.5021 67.194C39.4921 65.294 39.5021 63.394 39.5021 61.5V60.64L36.5731 60.644Z" fill="white"/>
<path d="M41.8862 47.58C41.3613 47.584 40.8563 47.3793 40.4824 47.011C40.1084 46.6427 39.8961 46.1409 39.8921 45.616C39.8882 45.0911 40.0929 44.5862 40.4612 44.2122C40.8295 43.8383 41.3313 43.626 41.8561 43.622C42.116 43.62 42.3738 43.6693 42.6146 43.7669C42.8555 43.8645 43.0747 44.0087 43.2599 44.191C43.445 44.3734 43.5925 44.5905 43.6938 44.8298C43.7951 45.0692 43.8482 45.3261 43.8502 45.586C43.8521 45.8459 43.8029 46.1036 43.7053 46.3445C43.6076 46.5853 43.4635 46.8046 43.2811 46.9898C43.0987 47.1749 42.8817 47.3224 42.6423 47.4236C42.403 47.5249 42.1461 47.578 41.8862 47.58Z" fill="white"/>
<path d="M30.1831 63.389C30.1831 62.383 30.1831 61.377 30.1831 60.371C30.172 60.2889 30.1494 60.2088 30.116 60.133C30.0408 60.164 29.9707 60.2061 29.908 60.258C29.619 60.59 29.336 60.928 29.056 61.267C28.9982 61.3508 28.9236 61.4219 28.8371 61.4756C28.7506 61.5294 28.6539 61.5647 28.5531 61.5795C28.4523 61.5942 28.3495 61.5879 28.2512 61.5612C28.1529 61.5344 28.0612 61.4876 27.9818 61.4238C27.9024 61.36 27.837 61.2804 27.7897 61.1902C27.7425 61.1 27.7143 61.0009 27.707 60.8993C27.6997 60.7977 27.7134 60.6957 27.7473 60.5996C27.7812 60.5036 27.8346 60.4155 27.9041 60.341C28.4421 59.691 28.977 59.041 29.536 58.406C29.7432 58.1738 29.9956 57.9862 30.2778 57.8549C30.5599 57.7235 30.8659 57.6511 31.177 57.642C31.7288 57.6151 32.2819 57.6268 32.832 57.677C33.3785 57.7436 33.8774 58.0205 34.223 58.449C34.7564 59.0743 35.2847 59.7033 35.8081 60.336C35.8771 60.4095 35.9303 60.4963 35.9645 60.5912C35.9987 60.6861 36.013 60.7869 36.0067 60.8876C36.0003 60.9882 35.9735 61.0864 35.9277 61.1763C35.882 61.2661 35.8182 61.3456 35.7406 61.4099C35.6629 61.4742 35.5729 61.5219 35.476 61.55C35.3792 61.5781 35.2777 61.5861 35.1776 61.5734C35.0776 61.5608 34.9812 61.5278 34.8944 61.4765C34.8076 61.4251 34.7323 61.3566 34.673 61.275C34.386 60.941 34.11 60.598 33.823 60.264C33.7604 60.2105 33.6908 60.1657 33.616 60.131C33.5805 60.204 33.5559 60.2818 33.543 60.362C33.539 62.366 33.539 64.3703 33.543 66.375C33.5461 66.5564 33.4824 66.7326 33.364 66.8702C33.2457 67.0077 33.0809 67.097 32.901 67.121C32.7364 67.1421 32.5695 67.1063 32.428 67.0195C32.2865 66.9328 32.1789 66.8003 32.1231 66.644C32.0867 66.5173 32.0709 66.3857 32.0761 66.254C32.0761 65.263 32.0761 64.272 32.0761 63.281C32.0761 63.222 32.0761 63.163 32.0761 63.105C32.0761 62.963 32.0431 62.821 31.8761 62.822C31.7091 62.823 31.659 62.962 31.659 63.117C31.659 64.203 31.659 65.2897 31.659 66.377C31.6661 66.5514 31.609 66.7224 31.4984 66.8575C31.3878 66.9926 31.2314 67.0825 31.059 67.11C30.9521 67.1262 30.843 67.119 30.7391 67.089C30.6353 67.059 30.5391 67.0068 30.4573 66.9361C30.3755 66.8654 30.31 66.7779 30.2652 66.6795C30.2205 66.581 30.1975 66.4741 30.198 66.366C30.191 65.373 30.198 64.381 30.198 63.389H30.1831Z" fill="white"/>
<path d="M33.536 55.526C33.5352 55.86 33.4354 56.1863 33.2493 56.4636C33.0633 56.741 32.7992 56.957 32.4904 57.0843C32.1817 57.2117 31.8421 57.2447 31.5145 57.1792C31.187 57.1137 30.8863 56.9526 30.6503 56.7163C30.4143 56.48 30.2535 56.1791 30.1884 55.8515C30.1233 55.5239 30.1567 55.1844 30.2844 54.8758C30.4122 54.5672 30.6285 54.3033 30.906 54.1175C31.1836 53.9318 31.51 53.8324 31.844 53.832C32.2924 53.8341 32.7219 54.0134 33.0388 54.3306C33.3557 54.6479 33.5344 55.0776 33.536 55.526Z" fill="white"/>
<path d="M162.411 209.612C162.411 209.612 164.188 213.759 160.337 214.055C156.486 214.351 155.007 210.501 153.526 209.02C152.045 207.539 151.579 205.798 152.404 204.299C153.229 202.8 157.08 203.985 157.08 203.985L162.411 209.612Z" fill="#1A1818"/>
<path d="M133.7 75.871C136.6 75.509 139.522 75.99 142.437 76.138C145.352 76.286 148.437 76.051 150.878 74.447C153.319 72.843 154.815 69.516 153.545 66.888C152.528 64.788 149.945 63.248 150.195 60.925C150.416 58.916 152.795 57.47 152.55 55.464C152.338 53.742 150.35 52.89 149.405 51.436C148.153 49.512 148.926 46.97 148.671 44.689C148.372 42.73 147.319 40.9652 145.738 39.771C144.157 38.5768 142.171 38.0475 140.205 38.296C134.835 36.271 128.365 39.628 127.222 45.252C126.892 46.876 126.961 48.606 126.272 50.113C125.028 52.835 121.424 54.835 122.146 57.739C122.646 59.739 125.161 60.998 125.079 63.061C125.028 64.345 123.964 65.321 123.33 66.439C122.001 68.783 122.668 71.89 124.387 73.964C126.106 76.038 131.023 76.205 133.7 75.871Z" fill="#1A1818"/>
<path d="M136.567 76.939C139.467 76.577 142.389 77.058 145.304 77.206C148.219 77.354 151.304 77.119 153.744 75.515C156.184 73.911 157.682 70.584 156.412 67.956C155.395 65.856 152.812 64.316 153.062 61.993C153.283 59.984 155.662 58.538 155.417 56.532C155.205 54.81 153.217 53.958 152.272 52.504C151.02 50.58 151.793 48.038 151.538 45.757C151.239 43.798 150.186 42.0332 148.605 40.839C147.023 39.6448 145.038 39.1155 143.072 39.364C137.702 37.339 131.232 40.697 130.089 46.32C129.759 47.944 129.828 49.674 129.139 51.182C127.895 53.903 124.291 55.903 125.013 58.807C125.513 60.807 128.028 62.066 127.946 64.129C127.895 65.413 126.831 66.389 126.197 67.507C124.868 69.851 125.535 72.958 127.254 75.032C128.973 77.106 133.893 77.273 136.567 76.939Z" fill="#1A1818"/>
<path d="M129.653 79.806C132.553 79.444 135.475 79.925 138.39 80.073C141.305 80.221 144.39 79.986 146.83 78.382C149.27 76.778 150.768 73.451 149.497 70.823C148.48 68.723 145.897 67.183 146.148 64.86C146.368 62.851 148.748 61.405 148.503 59.399C148.29 57.677 146.303 56.825 145.357 55.371C144.105 53.447 144.878 50.905 144.624 48.624C144.325 46.6648 143.272 44.8999 141.691 43.7057C140.109 42.5114 138.123 41.9823 136.157 42.231C130.788 40.206 124.317 43.563 123.175 49.187C122.845 50.811 122.913 52.541 122.224 54.048C120.981 56.77 117.377 58.77 118.099 61.674C118.599 63.674 121.113 64.933 121.032 66.996C120.981 68.28 119.916 69.256 119.283 70.374C117.954 72.718 118.62 75.825 120.34 77.899C122.06 79.973 126.979 80.14 129.653 79.806Z" fill="#1A1818"/>
<path d="M160.917 96.259L173.058 116.883L169.948 118.808C169.948 118.808 158.253 105.585 156.254 99.146C154.255 92.707 160.917 96.259 160.917 96.259Z" fill="#FEBF99"/>
<path d="M128.223 104.405L143.066 104.749C143.487 91.6549 149.394 71.049 149.394 71.049C149.394 71.049 140.151 68.1829 139.783 67.3439C139.047 65.6649 139.418 58.476 139.418 58.476L132.829 61.6409C132.829 61.6409 133.342 67.596 132.422 68.015C130.325 68.8831 128.174 69.6124 125.981 70.198C124.755 74.454 122.74 78.472 121.958 82.8139C121.809 83.4229 121.779 84.0546 121.869 84.675C122.112 85.4552 122.506 86.1804 123.027 86.81C126.128 91.335 127.692 99.092 128.223 104.405Z" fill="#FEBF99"/>
<g opacity="0.49">
<path d="M136.736 66.6639L137.893 65.7339L137.723 66.8219L136.736 66.6639Z" fill="#BC683C"/>
<path d="M134.692 60.226L131.527 62.7699L132.005 59.7939L134.692 60.226Z" fill="#D67543"/>
</g>
<g opacity="0.24">
<path d="M133.389 64.5531C133.277 64.5431 133.089 64.5141 132.974 64.4951C132.918 63.4731 132.844 61.7001 132.844 61.7001L139.444 58.4661C139.444 58.4661 139.36 59.7661 139.316 61.3841C138.687 62.3805 137.81 63.1965 136.771 63.752C135.732 64.3075 134.567 64.5836 133.389 64.5531Z" fill="#873C39"/>
</g>
<path d="M175.955 122.851C176.22 123.178 176.75 123.525 176.981 123.173C177.028 123.089 177.054 122.994 177.056 122.898C177.085 122.449 176.987 122.001 176.775 121.605C176.563 121.208 176.245 120.879 175.856 120.653C177.87 120.623 180.314 120.725 181.956 121.891C182.283 122.123 182.808 122.438 183.044 122.113C183.552 121.413 180.844 119.818 178.764 119.437C180.564 119.267 182.999 121.588 183.408 121.354C183.943 121.048 183.301 120.154 182.881 119.707C181.911 118.667 180.799 118.455 179.293 117.746C180.861 117.962 183.193 120.316 183.474 120.003C184.198 119.185 182.496 117.752 181.553 117.203C180.4 116.531 179.109 116.134 177.778 116.041C175.719 115.901 173.464 116.457 171.711 115.37C171.511 115.243 171.265 115.09 171.044 115.185C170.862 115.264 168.42 114.647 168.371 114.839C167.265 119.19 173.641 119.99 175.955 122.851Z" fill="#FEBF99"/>
<path d="M112.191 94.234L100.867 113.107L104.419 115.328C104.419 115.328 114.855 103.56 116.854 97.12C118.853 90.68 112.191 94.234 112.191 94.234Z" fill="#FEBF99"/>
<path d="M96.2421 121.777C95.9771 122.105 95.4481 122.451 95.2171 122.099C95.1691 122.015 95.1432 121.92 95.142 121.824C95.1132 121.375 95.2104 120.927 95.4224 120.531C95.6344 120.134 95.9529 119.804 96.3421 119.579C94.2348 119.452 92.1383 119.965 90.328 121.051C90.001 121.283 89.477 121.597 89.24 121.273C88.732 120.573 91.6101 118.681 93.4351 118.364C91.6351 118.193 89.2241 120.813 88.8151 120.579C88.2801 120.279 88.9221 119.379 89.3421 118.933C90.3661 117.948 91.5782 117.179 92.906 116.672C91.338 116.889 88.898 118.884 88.621 118.572C87.898 117.754 89.703 116.679 90.645 116.128C91.7976 115.455 93.0897 115.058 94.421 114.966C96.479 114.825 98.521 114.957 100.272 113.866C100.472 113.739 103.456 109.127 103.456 109.127C103.456 109.127 104.619 112.78 104.641 112.977C105.23 118.312 98.5571 118.912 96.2421 121.777Z" fill="#FEBF99"/>
<path d="M142.143 52.55C142.189 51.875 143.255 51.7389 143.708 52.2419C143.899 52.5216 144.03 52.8375 144.094 53.1701C144.157 53.5026 144.152 53.8447 144.077 54.175C143.993 55.2491 143.49 56.2472 142.677 56.954C141.84 57.686 140.446 57.813 140.101 56.754L142.143 52.55Z" fill="#FEBF99"/>
<path d="M136.017 43.412C130.504 42.421 127.517 45.5369 127.276 51.7679C127.083 56.6799 129.063 61.0679 132.01 61.9229C136.264 63.1629 140.74 58.391 141.687 53.972C142.962 48.032 138.886 43.93 136.017 43.412Z" fill="#FEBF99"/>
<path d="M141.144 55.477C141.497 54.6202 141.734 53.7204 141.85 52.801C141.986 52.1649 141.993 51.5079 141.872 50.8689C141.75 50.2299 141.501 49.6216 141.141 49.08C140.502 48.167 139.218 48.067 138.168 47.007C136.675 45.501 135.261 40.246 138.74 40.087C139.702 40.0597 140.659 40.2323 141.551 40.5937C142.443 40.9552 143.25 41.4977 143.921 42.187C144.55 42.9526 144.994 43.8525 145.219 44.8171C145.444 45.7817 145.445 46.7852 145.221 47.75C144.881 49.162 145.272 51.024 144.555 52.286C143.195 53.0828 142.03 54.173 141.144 55.477Z" fill="#1A1818"/>
<path d="M127.269 52.994C126.777 50.101 125.869 46.015 127.904 42.341C129.939 38.667 137.004 36.912 138.666 40.509C140.328 44.106 131.712 45.329 129.587 45.871C127.763 46.336 127.595 49.308 127.387 51.326L127.269 52.994Z" fill="#1A1818"/>
<path d="M137.863 39.276C137.681 40.1842 137.287 41.0365 136.712 41.7632C136.138 42.4899 135.4 43.0703 134.558 43.457C132.908 44.185 130.558 44.004 129.13 44.815C127.979 45.436 127.002 46.615 127.33 47.873C127.292 47.5672 127.316 47.2568 127.401 46.9605C127.485 46.6642 127.629 46.3881 127.824 46.149C129.879 43.474 133.515 45.328 136.238 42.615C137.149 41.7227 137.723 40.5431 137.863 39.276Z" fill="#313133"/>
<path d="M135.164 38.882C134.982 39.7903 134.588 40.6427 134.014 41.3695C133.439 42.0962 132.701 42.6765 131.859 43.063C130.21 43.792 127.859 43.61 126.432 44.422C125.281 45.043 124.304 46.222 124.626 47.4799C124.588 47.174 124.613 46.8636 124.698 46.5673C124.783 46.271 124.926 45.9947 125.12 45.7549C127.175 43.0809 130.812 44.9339 133.535 42.2209C134.447 41.3296 135.023 40.1497 135.164 38.882Z" fill="#313133"/>
<path d="M143.163 54.479C143.011 54.6454 142.837 54.7901 142.646 54.909C142.461 55.0226 142.258 55.1047 142.046 55.152L141.8 55.204L142.006 55.347C142.171 55.4684 142.297 55.6351 142.369 55.827C142.447 56.0304 142.47 56.2508 142.436 56.466C142.556 56.2578 142.59 56.011 142.531 55.778C142.476 55.5336 142.334 55.3175 142.131 55.17L142.091 55.365C142.33 55.3121 142.553 55.2034 142.742 55.048C142.931 54.8993 143.076 54.7029 143.163 54.479Z" fill="#9D5846"/>
<path d="M133.729 51.85C133.886 52.7088 133.742 53.5955 133.32 54.36C133.244 54.5137 133.13 54.6454 132.989 54.7424C132.848 54.8394 132.684 54.8984 132.513 54.9139C132.342 54.9294 132.171 54.9007 132.014 54.8307C131.858 54.7606 131.722 54.6516 131.62 54.514C131.548 54.3874 131.504 54.247 131.491 54.1021C131.477 53.9571 131.495 53.811 131.542 53.6734C131.589 53.5358 131.665 53.4097 131.765 53.3036C131.865 53.1976 131.986 53.1138 132.12 53.058C133.023 52.641 133.323 52.622 133.729 51.85Z" fill="#FDAD78"/>
<path d="M130.499 56.542C130.499 56.542 133.654 57.879 136.126 56.342C136.126 56.342 135.826 59.463 133.483 59.562C130.883 59.673 130.499 56.542 130.499 56.542Z" fill="#873C39"/>
<path d="M131.138 56.757C131.151 56.9518 131.176 57.1456 131.215 57.337C131.752 57.5813 132.335 57.7052 132.925 57.7C133.143 57.7271 133.362 57.7408 133.582 57.741C134.212 57.694 134.829 57.5416 135.408 57.29C135.399 57.104 135.397 56.905 135.382 56.709C134.009 57.1766 132.522 57.1934 131.138 56.757Z" fill="white"/>
<path d="M135.045 58.868C134.877 58.6839 134.673 58.5362 134.445 58.434C133.884 58.1541 133.25 58.0559 132.63 58.153C132.194 58.2302 131.789 58.4288 131.461 58.726C131.71 59.0128 132.023 59.2378 132.374 59.383C132.726 59.5283 133.106 59.5899 133.485 59.563C134.076 59.5451 134.636 59.2955 135.045 58.868Z" fill="#E9373D"/>
<path d="M182.459 121.012C182.497 121.011 182.533 120.995 182.559 120.968C182.573 120.954 182.584 120.938 182.591 120.92C182.599 120.902 182.603 120.883 182.603 120.864C182.603 120.844 182.599 120.825 182.591 120.807C182.584 120.789 182.573 120.773 182.559 120.759C181.278 119.607 179.63 118.945 177.908 118.891C177.888 118.888 177.868 118.889 177.848 118.894C177.828 118.899 177.81 118.908 177.794 118.92C177.778 118.932 177.765 118.948 177.755 118.965C177.745 118.983 177.739 119.003 177.737 119.023C177.735 119.043 177.737 119.063 177.743 119.082C177.75 119.102 177.76 119.119 177.773 119.135C177.786 119.15 177.803 119.162 177.821 119.171C177.839 119.179 177.859 119.184 177.879 119.185C179.533 119.235 181.116 119.866 182.35 120.968C182.364 120.982 182.381 120.994 182.4 121.001C182.419 121.009 182.439 121.013 182.459 121.012Z" fill="#C75741"/>
<path d="M182.903 119.681C182.932 119.68 182.961 119.671 182.985 119.654C183.009 119.637 183.028 119.614 183.038 119.586C183.049 119.559 183.051 119.529 183.045 119.5C183.039 119.472 183.024 119.445 183.003 119.425C181.645 118.333 180.017 117.629 178.291 117.387C178.272 117.385 178.252 117.386 178.233 117.392C178.215 117.397 178.197 117.406 178.182 117.418C178.167 117.43 178.154 117.445 178.144 117.462C178.135 117.479 178.129 117.497 178.127 117.517C178.124 117.536 178.126 117.555 178.131 117.574C178.136 117.593 178.145 117.61 178.157 117.626C178.169 117.641 178.184 117.654 178.201 117.663C178.218 117.673 178.237 117.679 178.256 117.681C179.917 117.919 181.485 118.596 182.799 119.64C182.827 119.667 182.864 119.681 182.903 119.681Z" fill="#C75741"/>
<path d="M121.639 202.893C121.639 202.893 115.798 204.96 114.648 206.739C113.904 207.89 114.204 210.139 115.092 210.439C117.456 211.227 120.273 210.291 123.744 209.36C125.314 208.841 126.926 208.459 128.562 208.218C129.507 208.12 130.446 207.972 131.375 207.774C131.586 207.211 131.892 203.945 131.227 203.334C130.45 202.62 121.639 202.893 121.639 202.893Z" fill="#1A1818"/>
<path d="M122.857 169.866C122.857 169.866 127.101 199.555 125.632 200.534C124.163 201.513 120.832 203.297 118.875 204.276C116.918 205.255 115 207.199 115.617 207.83C116.852 209.095 120.368 208.253 122.937 206.887C124.784 205.905 131.261 205.908 131.506 204.929C131.751 203.95 130.723 168.512 130.723 168.512L122.857 169.866Z" fill="#FEBF99"/>
<path d="M143.399 171.693C143.399 171.693 152.404 203.07 152.404 204.293C152.404 205.516 153.384 206.986 154.604 208.21C155.867 209.542 157.295 210.708 158.853 211.679C161.271 212.889 161.917 210.586 162.407 209.606C162.897 208.626 158.276 204.293 156.807 202.09C155.338 199.887 152.346 172.506 152.346 172.506L143.399 171.693Z" fill="#FEBF99"/>
<path d="M129.173 202.098C130.021 202.115 130.859 201.908 131.601 201.498C131.701 201.435 131.771 201.335 131.797 201.22C131.823 201.105 131.802 200.985 131.739 200.885C131.676 200.785 131.576 200.715 131.461 200.689C131.346 200.663 131.226 200.684 131.126 200.747C131.035 200.804 128.798 202.139 125.769 200.018C125.672 199.951 125.553 199.924 125.437 199.945C125.321 199.965 125.218 200.031 125.15 200.128C125.083 200.224 125.057 200.343 125.077 200.459C125.098 200.575 125.163 200.679 125.26 200.746C126.391 201.595 127.759 202.067 129.173 202.098Z" fill="#1A1818"/>
<path d="M131.523 205.412C131.671 204.82 131.523 200.675 131.523 200.675C130.415 201.117 129.515 201.963 129.007 203.043C128.637 204.097 128.388 205.19 128.266 206.3L131.523 205.412Z" fill="#1A1818"/>
<path d="M123.895 197.494C125.277 198.206 126.79 198.625 128.341 198.727C129.892 198.829 131.448 198.611 132.911 198.086C133.545 187.511 133.711 176.914 133.877 166.322L134.053 155.045C134.192 146.181 135.025 138.507 135.164 129.645C137.132 153.153 141.599 176.384 148.491 198.945C151.484 199.238 154.487 198.497 157 196.845C155.265 183.962 154.128 172.81 152.393 159.926C151.899 156.727 151.592 153.502 151.472 150.268C151.404 146.44 151.907 142.625 152.021 138.799C152.504 122.592 150.283 110.154 143.502 101.299C138.718 104.766 133.091 104.47 127.74 101.879C120.168 115.779 119.106 133.336 120.416 149.115C121.726 164.894 123.643 181.663 123.895 197.494Z" fill="#C54A5E"/>
<path d="M136.956 141.03H136.986C137.02 141.026 137.053 141.016 137.083 140.999C137.114 140.982 137.14 140.96 137.162 140.933C137.183 140.906 137.199 140.875 137.208 140.842C137.218 140.809 137.221 140.774 137.217 140.74L137.184 140.44C136.302 132.415 134.69 122.816 132.019 122.663C131.951 122.661 131.884 122.685 131.833 122.731C131.783 122.777 131.752 122.842 131.748 122.91C131.745 122.978 131.767 123.045 131.812 123.097C131.857 123.149 131.921 123.18 131.989 123.186C133.736 123.286 135.483 129.758 136.663 140.497L136.696 140.797C136.703 140.861 136.734 140.92 136.782 140.963C136.83 141.006 136.892 141.03 136.956 141.03Z" fill="#364159"/>
<path d="M135.173 104.179C138.226 104.165 141.212 103.28 143.779 101.626C143.83 101.576 143.861 101.509 143.867 101.437C143.872 101.366 143.853 101.295 143.811 101.237C143.769 101.179 143.707 101.138 143.638 101.121C143.568 101.105 143.495 101.113 143.431 101.146C141.13 102.636 138.464 103.467 135.724 103.551C132.984 103.635 130.273 102.967 127.885 101.621C127.818 101.597 127.745 101.597 127.678 101.622C127.612 101.647 127.556 101.694 127.521 101.756C127.486 101.818 127.475 101.89 127.488 101.96C127.502 102.03 127.54 102.093 127.595 102.137C129.9 103.465 132.512 104.169 135.173 104.179Z" fill="#364159"/>
<path d="M160.93 206.053C160.415 205.697 159.817 205.482 159.193 205.43C158.569 205.377 157.943 205.488 157.376 205.753C156.193 206.22 155.213 207.089 154.608 208.207C154.608 208.207 158.122 213.564 160.93 212.269C164.78 210.496 160.93 206.053 160.93 206.053Z" fill="#1A1818"/>
<path d="M120.282 209.948C120.797 209.593 121.211 209.109 121.481 208.545C121.751 207.98 121.868 207.355 121.821 206.731C121.805 205.46 121.341 204.235 120.51 203.272C120.51 203.272 114.254 204.655 114.468 207.74C114.762 211.97 120.282 209.948 120.282 209.948Z" fill="#1A1818"/>
<path d="M152.637 206.794C152.653 206.795 152.67 206.795 152.686 206.794C152.803 206.781 152.91 206.722 152.984 206.63C153.058 206.538 153.092 206.42 153.079 206.303C152.95 205.713 152.957 205.101 153.101 204.514C153.244 203.927 153.519 203.381 153.906 202.917C154.295 202.593 154.746 202.349 155.231 202.201C155.715 202.053 156.225 202.003 156.729 202.055C156.846 202.07 156.964 202.037 157.057 201.965C157.15 201.892 157.21 201.786 157.225 201.669C157.24 201.552 157.207 201.434 157.135 201.341C157.062 201.248 156.956 201.188 156.839 201.173C156.202 201.103 155.558 201.166 154.947 201.356C154.336 201.547 153.77 201.861 153.286 202.28C152.798 202.836 152.446 203.497 152.257 204.212C152.068 204.927 152.047 205.677 152.196 206.401C152.209 206.509 152.26 206.609 152.342 206.681C152.423 206.754 152.528 206.794 152.637 206.794Z" fill="#1A1818"/>
<path d="M132.823 52.78C132.696 52.716 132.556 52.6809 132.414 52.6773C132.271 52.6737 132.13 52.7016 132 52.759C131.859 52.8133 131.73 52.8951 131.621 52.9997C131.512 53.1043 131.425 53.2295 131.365 53.3682C131.305 53.5068 131.273 53.656 131.271 53.8071C131.27 53.9581 131.298 54.108 131.355 54.248C131.402 54.3823 131.479 54.5045 131.579 54.6058C131.679 54.7071 131.8 54.785 131.934 54.834C131.79 54.6362 131.697 54.4062 131.662 54.164C131.626 53.9496 131.653 53.7294 131.739 53.5298C131.825 53.3302 131.967 53.1598 132.148 53.039C132.349 52.8989 132.58 52.81 132.823 52.78Z" fill="#CE6543"/>
<path d="M135.893 51.988C135.893 51.988 135.807 53.001 137.405 53.053C137.836 53.0902 138.269 53.0186 138.665 52.8447C139.061 52.6709 139.407 52.4004 139.671 52.058C139.452 51.7502 139.163 51.4982 138.828 51.3224C138.493 51.1466 138.122 51.0519 137.744 51.046C137.381 51.0326 137.02 51.1121 136.696 51.2769C136.372 51.4417 136.096 51.6865 135.893 51.988Z" fill="white"/>
<path d="M132.023 51.565C132.023 51.565 131.723 52.418 130.14 52.196C129.734 52.1736 129.348 52.0134 129.045 51.7421C128.742 51.4707 128.541 51.1042 128.474 50.703C128.734 50.4616 129.051 50.2904 129.395 50.2057C129.74 50.121 130.1 50.1256 130.442 50.219C130.798 50.2903 131.131 50.4514 131.407 50.6869C131.684 50.9224 131.896 51.2247 132.023 51.565Z" fill="white"/>
<path d="M135.865 51.8789C135.876 52.159 135.985 52.4263 136.172 52.635C136.359 52.8438 136.613 52.9809 136.89 53.0229C138.005 53.1549 138.071 51.1149 138.071 51.1149C137.669 51.0317 137.251 51.0587 136.863 51.1932C136.474 51.3277 136.13 51.5646 135.865 51.8789Z" fill="#1A1818"/>
<path d="M128.469 50.665C128.469 50.665 128.629 51.912 129.469 52.045C130.578 52.221 130.633 50.272 130.633 50.272C130.272 50.128 129.877 50.0885 129.495 50.158C129.112 50.2275 128.757 50.4032 128.469 50.665Z" fill="#1A1818"/>
<path d="M135.93 51.958C135.972 51.9634 136.014 51.9557 136.051 51.9357C136.088 51.9158 136.118 51.8848 136.136 51.847C136.303 51.5882 136.543 51.3841 136.825 51.2597C137.107 51.1354 137.419 51.0962 137.723 51.147C138.065 51.1505 138.403 51.227 138.713 51.3714C139.024 51.5157 139.3 51.7245 139.523 51.984C139.554 52.0281 139.601 52.0582 139.654 52.0676C139.707 52.077 139.762 52.0649 139.806 52.034C139.85 52.0031 139.88 51.9559 139.89 51.9028C139.899 51.8498 139.887 51.7951 139.856 51.751C139.597 51.4417 139.275 51.1915 138.912 51.0175C138.548 50.8434 138.151 50.7494 137.748 50.742C137.364 50.6839 136.971 50.7408 136.619 50.9056C136.267 51.0704 135.972 51.3356 135.77 51.668C135.755 51.697 135.747 51.7294 135.747 51.7622C135.747 51.795 135.756 51.8272 135.771 51.8561C135.787 51.8849 135.809 51.9095 135.837 51.9276C135.864 51.9457 135.895 51.9568 135.928 51.96L135.93 51.958Z" fill="#1A1818"/>
<path d="M131.99 51.527C132.025 51.5318 132.06 51.5274 132.093 51.5143C132.125 51.5011 132.154 51.4796 132.175 51.4519C132.197 51.4243 132.211 51.3914 132.216 51.3567C132.221 51.3219 132.216 51.2865 132.203 51.254C132.051 50.9108 131.817 50.6099 131.522 50.3774C131.227 50.145 130.879 49.988 130.51 49.92C130.138 49.8064 129.743 49.7951 129.365 49.8871C128.987 49.9791 128.641 50.1711 128.363 50.443C128.346 50.4636 128.333 50.4874 128.326 50.5129C128.318 50.5384 128.315 50.5652 128.318 50.5918C128.32 50.6184 128.328 50.6441 128.341 50.6677C128.353 50.6912 128.37 50.7121 128.391 50.729C128.412 50.7459 128.435 50.7587 128.461 50.7664C128.486 50.7742 128.513 50.7768 128.54 50.7742C128.566 50.7716 128.592 50.7638 128.616 50.7512C128.639 50.7387 128.66 50.7216 128.677 50.701C128.909 50.4888 129.194 50.3417 129.501 50.2746C129.809 50.2075 130.128 50.2229 130.428 50.319C130.731 50.3719 131.017 50.4978 131.261 50.6858C131.505 50.8738 131.7 51.1182 131.828 51.398C131.841 51.4322 131.862 51.4623 131.891 51.4851C131.92 51.5078 131.954 51.5223 131.99 51.527Z" fill="#1A1818"/>
<path d="M139.174 40.386C138.906 41.3806 138.874 42.4243 139.082 43.4333C139.289 44.4424 139.73 45.3888 140.369 46.197C141.591 47.757 143.498 48.897 144.613 50.463C146.15 52.57 145.991 55.526 144.856 57.851C144.294 59.024 143.332 60.316 143.467 61.715C143.639 63.605 145.692 64.398 146.213 65.944C146.369 66.4157 146.401 66.9195 146.306 67.4072C146.212 67.8948 145.993 68.35 145.672 68.729C146.165 68.2455 146.466 67.5995 146.519 66.911C146.743 64.497 144.019 63.627 143.928 61.679C143.853 60.455 144.797 59.208 145.358 58.101C146.64 55.554 146.752 52.374 145.066 50.134C143.38 47.894 140.691 46.867 139.624 44.294C139.087 43.0655 138.93 41.7044 139.174 40.386Z" fill="#313133"/>
<path d="M142.209 40.892C141.942 41.887 141.911 42.9309 142.119 43.9399C142.328 44.949 142.769 45.8953 143.409 46.703C144.631 48.263 146.537 49.403 147.653 50.969C149.19 53.076 149.031 56.032 147.895 58.357C147.334 59.53 146.372 60.822 146.506 62.221C146.679 64.111 148.732 64.904 149.252 66.45C149.408 66.9216 149.44 67.4253 149.346 67.913C149.251 68.4007 149.033 68.8559 148.712 69.235C149.205 68.7514 149.505 68.1054 149.558 67.417C149.782 65.003 147.058 64.133 146.967 62.185C146.893 60.961 147.836 59.714 148.397 58.607C149.68 56.06 149.791 52.88 148.105 50.64C146.419 48.4 143.731 47.373 142.663 44.8C142.125 43.5719 141.967 42.2107 142.209 40.892Z" fill="#313133"/>
<path d="M151.203 57.3879C150.687 57.8956 150.305 58.5227 150.09 59.2138C149.874 59.9048 149.833 60.6382 149.97 61.3489C150.37 63.4429 152.451 64.7489 152.804 66.8489C153.104 68.5079 151.787 69.1609 151.244 70.4119C151.065 70.7336 151.001 71.1062 151.06 71.4692C151.12 71.8323 151.301 72.1645 151.573 72.4119C151.363 72.1481 151.243 71.8236 151.231 71.4863C151.219 71.1491 151.316 70.817 151.507 70.5389C151.977 69.6789 153.025 69.0569 153.302 67.9099C153.396 67.3562 153.378 66.7893 153.25 66.2426C153.121 65.6958 152.885 65.1802 152.555 64.7259C151.755 63.4989 150.773 62.5449 150.419 61.2479C150.26 60.5863 150.248 59.8979 150.383 59.231C150.518 58.5641 150.798 57.935 151.203 57.3879Z" fill="#313133"/>
<path d="M124.796 47.958C124.28 48.4655 123.898 49.0925 123.683 49.7833C123.468 50.4742 123.427 51.2075 123.563 51.918C123.963 54.018 126.044 55.318 126.397 57.418C126.697 59.077 125.379 59.73 124.837 60.981C124.658 61.3026 124.593 61.6752 124.653 62.0383C124.713 62.4014 124.894 62.7336 125.166 62.981C124.956 62.7171 124.836 62.3926 124.824 62.0554C124.812 61.7182 124.909 61.386 125.1 61.108C125.57 60.248 126.618 59.625 126.9 58.479C126.994 57.9253 126.976 57.3585 126.847 56.8117C126.719 56.265 126.483 55.7494 126.153 55.295C125.353 54.067 124.371 53.114 124.017 51.817C123.857 51.1559 123.844 50.4678 123.979 49.8011C124.113 49.1344 124.392 48.5053 124.796 47.958Z" fill="#313133"/>
<path d="M122.941 55.631C122.426 56.1389 122.043 56.7661 121.828 57.457C121.613 58.148 121.572 58.8813 121.708 59.592C122.108 61.686 124.189 62.992 124.542 65.092C124.842 66.752 123.524 67.404 122.982 68.656C122.803 68.9775 122.738 69.35 122.798 69.7131C122.857 70.0762 123.038 70.4085 123.31 70.656C123.1 70.3923 122.98 70.0679 122.968 69.7307C122.956 69.3936 123.053 69.0616 123.245 68.784C123.715 67.923 124.763 67.301 125.039 66.155C125.133 65.6012 125.115 65.0341 124.987 64.4872C124.859 63.9403 124.623 63.4245 124.293 62.97C123.493 61.743 122.511 60.789 122.157 59.492C121.997 58.8302 121.985 58.1416 122.12 57.4745C122.256 56.8074 122.536 56.1781 122.941 55.631Z" fill="#313133"/>
<path d="M129.678 74.83C131.885 76.211 132.778 76.799 133.433 78.975C133.794 80.0967 134.059 81.2472 134.224 82.414H138.036C138.201 81.2472 138.466 80.0967 138.827 78.975C139.485 76.799 140.375 76.211 142.581 74.83C144.443 73.7157 146.013 72.1729 147.159 70.33L144.027 69.139C142.41 72.239 137.238 73.858 136.127 77.209C135.018 73.858 129.847 72.241 128.227 69.139L125.095 70.33C126.243 72.1734 127.814 73.7161 129.678 74.83Z" fill="#C54A5E"/>
<path d="M109.739 94.859C109.08 97.059 105.049 99.478 105.456 100.124C105.863 100.77 116.262 102.438 116.262 102.438L122.068 88.238V78.772L117.768 73.931C117.768 73.931 110.398 92.663 109.739 94.859Z" fill="#AE0721"/>
<path d="M162.523 94.859C161.864 92.659 154.498 73.928 154.498 73.928L150.198 78.769V88.235L155.479 102.775C155.479 102.775 166.16 100.55 166.566 99.903C166.972 99.256 163.18 97.054 162.523 94.859Z" fill="#AE0721"/>
<path d="M155.145 116.26C154.838 114.143 149.524 101.091 149.524 101.091C149.524 101.091 152.466 89.411 152.51 88.191C152.231 86.1247 151.806 84.0809 151.237 82.075C151.237 82.075 155.299 74.688 154.465 73.923C152.87 72.8104 151.153 71.8834 149.348 71.16L147.159 70.327C146.013 72.1699 144.443 73.7126 142.581 74.827C140.375 76.208 139.481 76.796 138.827 78.972C138.466 80.0937 138.201 81.2442 138.036 82.411H134.223C134.058 81.2442 133.793 80.0937 133.432 78.972C132.773 76.796 131.884 76.208 129.677 74.827C127.815 73.7123 126.246 72.1697 125.1 70.327L122.911 71.16C121.106 71.8832 119.39 72.8102 117.795 73.923C116.96 74.688 121.022 82.075 121.022 82.075C120.453 84.0809 120.028 86.1247 119.749 88.191C119.793 89.406 122.735 101.091 122.735 101.091C122.735 101.091 117.421 114.143 117.114 116.26C114.714 132.781 116.442 142.518 115.214 172.327C115.12 174.598 115.022 176.427 114.965 177.445C121.628 180.383 128.853 181.828 136.133 181.678C154.49 181.678 157.301 177.445 157.301 177.445C157.244 176.428 157.147 174.61 157.053 172.345C155.669 138.993 157.402 131.801 155.145 116.26Z" fill="#AE0721"/>
<path d="M120.036 90.8121C119.861 90.3906 119.713 89.958 119.595 89.5171C119.463 89.0647 119.366 88.6031 119.304 88.1361C119.251 87.8422 119.267 87.5401 119.349 87.2531C119.415 86.9971 119.472 86.7351 119.549 86.4771C119.689 85.9571 119.838 85.4391 119.991 84.9561C120.144 84.4731 120.315 84.0191 120.464 83.6361C120.764 82.8671 121.009 82.3711 121.009 82.3711C121.033 82.3279 121.072 82.2951 121.119 82.2791C121.165 82.263 121.216 82.2648 121.262 82.2841C121.296 82.2968 121.325 82.32 121.346 82.3503C121.366 82.3807 121.376 82.4167 121.374 82.4531C121.374 82.4531 121.333 82.9931 121.193 83.7791C121.128 84.1791 121.03 84.6231 120.93 85.1161C120.83 85.6091 120.708 86.1301 120.578 86.6511C120.517 86.9131 120.439 87.1711 120.372 87.4271L120.32 87.6181L120.307 87.6651L120.3 87.6891C120.3 87.6811 120.293 87.7221 120.3 87.6751V87.6841V87.7551L120.289 87.8951L120.298 88.0721C120.32 88.5411 120.368 89.0101 120.393 89.4051C120.458 90.2001 120.461 90.7411 120.462 90.7411C120.461 90.7685 120.454 90.7955 120.443 90.8204C120.431 90.8453 120.415 90.8677 120.395 90.8863C120.374 90.9049 120.35 90.9193 120.325 90.9287C120.299 90.9381 120.271 90.9423 120.244 90.9411C120.201 90.9422 120.158 90.9306 120.121 90.9077C120.084 90.8848 120.054 90.8515 120.036 90.8121Z" fill="#E82727"/>
<path d="M135.754 49.5509C135.806 49.5075 135.863 49.47 135.924 49.4389C136.08 49.348 136.243 49.2678 136.41 49.1989C136.642 49.108 136.881 49.0361 137.125 48.9839C137.402 48.92 137.683 48.8815 137.967 48.869C138.249 48.844 138.534 48.844 138.816 48.869C139.062 48.8817 139.307 48.9151 139.548 48.9689C139.972 49.0689 140.248 49.1549 140.248 49.1549C140.274 49.1634 140.298 49.177 140.319 49.1948C140.34 49.2126 140.357 49.2344 140.369 49.2588C140.381 49.2833 140.389 49.3099 140.391 49.3372C140.393 49.3645 140.39 49.3919 140.381 49.4179C140.369 49.4537 140.348 49.4856 140.319 49.5104C140.291 49.5351 140.256 49.5519 140.219 49.5589H140.202C140.202 49.5589 139.922 49.6079 139.516 49.6439C139.316 49.6529 139.077 49.6829 138.828 49.7089C138.579 49.7349 138.312 49.7499 138.049 49.7819C137.786 49.8139 137.523 49.8409 137.276 49.8659C137.029 49.8909 136.801 49.9239 136.599 49.9359C136.399 49.9649 136.227 49.9629 136.119 49.9799L135.931 49.996C135.88 50.0005 135.828 49.9889 135.784 49.9628C135.74 49.9367 135.704 49.8974 135.683 49.8503C135.663 49.8033 135.657 49.7509 135.667 49.7004C135.677 49.65 135.703 49.604 135.741 49.5689L135.754 49.5509Z" fill="#1A1818"/>
<path d="M132.245 49.212C132.205 49.1667 132.159 49.1264 132.109 49.092C131.982 48.9943 131.848 48.9047 131.709 48.824C131.517 48.7166 131.316 48.625 131.109 48.55C130.633 48.3842 130.136 48.2833 129.633 48.25C129.415 48.2316 129.195 48.2316 128.977 48.25C128.593 48.284 128.342 48.331 128.342 48.331C128.318 48.3352 128.295 48.3442 128.275 48.3573C128.254 48.3704 128.237 48.3874 128.223 48.4074C128.209 48.4274 128.199 48.45 128.194 48.4738C128.189 48.4976 128.189 48.5221 128.193 48.546C128.199 48.5791 128.214 48.6099 128.236 48.6352C128.259 48.6606 128.287 48.6795 128.319 48.69L128.335 48.695C128.335 48.695 128.575 48.771 128.928 48.851C129.105 48.883 129.309 48.937 129.528 48.99C129.747 49.043 129.977 49.09 130.206 49.147C130.435 49.204 130.661 49.262 130.876 49.312C131.091 49.362 131.287 49.42 131.464 49.454C131.641 49.488 131.787 49.523 131.88 49.554L132.044 49.59C132.072 49.5965 132.101 49.5974 132.13 49.5925C132.158 49.5877 132.186 49.5772 132.21 49.5618C132.235 49.5464 132.256 49.5263 132.272 49.5026C132.289 49.479 132.301 49.4522 132.307 49.424C132.314 49.3914 132.314 49.3575 132.306 49.325C132.299 49.2925 132.284 49.2621 132.263 49.236L132.245 49.212Z" fill="#1A1818"/>
<path d="M142.483 58.348C142.483 59.348 141.983 60.062 141.373 60.062C140.763 60.062 140.262 59.349 140.262 58.348C140.262 57.347 140.762 56.071 141.373 56.071C141.984 56.071 142.483 57.347 142.483 58.348Z" fill="white"/>
<path d="M142.163 58.6001C142.163 59.2921 141.818 59.7851 141.395 59.7851C140.972 59.7851 140.627 59.2921 140.627 58.6001C140.627 57.9081 140.971 57.0271 141.395 57.0271C141.819 57.0271 142.163 57.9121 142.163 58.6001Z" fill="#E82727"/>
<path d="M128.559 58.588C128.559 59.431 128.14 60.031 127.625 60.031C127.11 60.031 126.69 59.431 126.69 58.588C126.69 57.745 127.108 56.672 127.625 56.672C128.142 56.672 128.559 57.745 128.559 58.588Z" fill="white"/>
<path d="M128.289 58.8009C128.289 59.3829 128 59.8009 127.643 59.8009C127.286 59.8009 126.997 59.3869 126.997 58.8009C126.997 58.2149 127.286 57.476 127.643 57.476C128 57.476 128.289 58.2179 128.289 58.8009Z" fill="#E82727"/>
<path d="M137.439 73.2679C137.448 73.4332 137.424 73.5987 137.367 73.7542C137.311 73.9098 137.223 74.0521 137.109 74.1725C136.996 74.2928 136.858 74.3887 136.706 74.4543C136.554 74.5198 136.391 74.5536 136.225 74.5536C136.059 74.5536 135.896 74.5198 135.744 74.4543C135.592 74.3887 135.455 74.2928 135.341 74.1725C135.227 74.0521 135.139 73.9098 135.083 73.7542C135.026 73.5987 135.002 73.4332 135.011 73.2679C135.011 72.5169 135.553 71.5609 136.224 71.5609C136.895 71.5609 137.439 72.5169 137.439 73.2679Z" fill="white"/>
<path d="M141.039 67.9969C139.987 69.8335 138.258 71.186 136.222 71.7659C134.186 71.1861 132.458 69.8336 131.405 67.9969" stroke="white" stroke-width="0.75" stroke-linecap="round" stroke-linejoin="round"/>
<path d="M137.057 73.162C137.057 73.854 136.712 74.346 136.289 74.346C135.866 74.346 135.521 73.854 135.521 73.162C135.521 72.47 135.865 71.588 136.289 71.588C136.713 71.588 137.057 72.47 137.057 73.162Z" fill="#E82727"/>
<path d="M102.034 117.912C102.042 118.573 101.875 119.225 101.55 119.801C101.257 119.601 100.725 118.263 100.592 116.054C100.459 113.845 100.825 112.454 101.092 112.217C101.122 112.243 101.15 112.273 101.174 112.305C101.345 112.186 101.51 112.058 101.668 111.922C101.594 111.832 101.501 111.76 101.395 111.711C101.289 111.662 101.173 111.638 101.057 111.641C99.69 111.723 99.888 115.647 99.915 116.094C99.942 116.541 100.215 120.46 101.585 120.378C102.422 120.327 102.671 118.837 102.733 117.586C102.547 117.68 102.252 117.812 102.034 117.912Z" fill="#EC8F0E"/>
<path d="M170.973 119.112C171.01 119.732 171.226 120.328 171.593 120.829C171.883 120.629 172.351 119.363 172.351 117.316C172.351 115.269 171.883 114.006 171.593 113.802C171.563 113.827 171.536 113.856 171.513 113.888C171.363 113.809 171.181 113.697 170.977 113.561C171.053 113.471 171.147 113.399 171.254 113.348C171.36 113.298 171.475 113.27 171.593 113.268C173.013 113.268 173.054 116.901 173.054 117.316C173.054 117.731 173.013 121.363 171.593 121.363C170.723 121.363 170.372 120.002 170.229 118.85C170.423 118.929 170.741 119.037 170.973 119.112Z" fill="#EC8F0E"/>
<path d="M140.923 51.4041C140.774 51.6188 140.573 51.7927 140.339 51.9101C140.108 52.0271 139.848 52.0757 139.59 52.0501" fill="#1A1818"/>
<path d="M140.448 51.14C140.331 51.3145 140.166 51.4514 139.973 51.5343C139.78 51.6171 139.567 51.6424 139.36 51.607" fill="#1A1818"/>
<path d="M139.994 50.8979C139.879 51.0688 139.718 51.204 139.53 51.2879C139.334 51.3732 139.118 51.4 138.907 51.3649" fill="#1A1818"/>
<path d="M127.571 50.181C127.694 50.3574 127.86 50.5003 128.052 50.597C128.242 50.6934 128.456 50.7333 128.668 50.712" fill="#1A1818"/>
<path d="M127.967 49.964C128.062 50.1045 128.194 50.2154 128.349 50.284C128.51 50.3544 128.688 50.3767 128.861 50.348" fill="#1A1818"/>
<path d="M128.339 49.764C128.434 49.9048 128.567 50.016 128.722 50.085C128.883 50.1559 129.061 50.1778 129.234 50.148" fill="#1A1818"/>
<path d="M156.864 169.095C153.491 171.035 142.698 175.757 136.036 174.995C121.382 173.325 119.798 170.261 115.377 168.165" stroke="#EACBB4" stroke-miterlimit="10"/>
<path d="M156.864 165.975C153.491 167.915 142.698 172.637 136.036 171.875C121.382 170.205 119.798 167.141 115.377 165.045" stroke="#EACBB4" stroke-miterlimit="10"/>
<path d="M156.723 163.169C153.385 165.089 142.701 169.763 136.107 169.012C121.602 167.359 120.034 164.326 115.658 162.251" stroke="#EACBB4" stroke-miterlimit="10"/>
</g>
<defs>
<clipPath id="clip0_1740_3378">
<rect width="199.737" height="214.066" fill="white"/>
</clipPath>
</defs>
</svg>
